<svg xmlns="http://www.w3.org/2000/svg" width="100%" viewBox="0 0 518 312" height="150" xmlns:v="https://vecta.io/nano"><path fill="#fefffe" d="M388 313H1V1h518v312H388m-23.246-27.12c11.763.932 23.536 2.749 35.286 2.608 22.875-.275 45.269-4.438 67.147-11.173 11.233-3.458 13.847-7.274 13.822-19.236l.035-68.997c.082-12.575 5.689-18.164 18.226-18.861.665-.037 1.548.196 1.954-.145 1.012-.848 2.538-1.989 2.493-2.948-.049-1.047-1.49-2.251-2.6-2.946-.729-.456-1.947-.153-2.946-.154l-81.999-.006c-.832 0-1.892-.285-2.448.116-1.068.77-2.523 1.913-2.559 2.944-.034.987 1.359 2.337 2.449 2.949.902.506 2.29.067 3.44.218 20.385 2.678 22.248 4.491 22.736 23.357.522 20.154.326 40.329.319 60.494-.004 9.309-4.858 15.249-13.843 15.762-10.76.614-21.665 1.203-32.348.162-28.946-2.819-53.129-15.585-71.563-38.124-22.885-27.982-34.257-60.942-39.121-96.282l-9.814-80.235c-.462-3.801-.475-7.763-1.66-11.331-.769-2.315-2.969-4.904-5.147-5.72-1.293-.485-4.21 1.883-5.633 3.601-1.764 2.131-2.821 4.876-4.038 7.426L198.35 172.249l-21.111 45.668c-.693 1.476-2.606 3.579-3.637 3.414-1.51-.242-3.249-2.019-4.005-3.573l-43.834-90.695-40.346-83.51c-1.528-3.165-3.409-5.944-7.416-5.489-3.698.42-5.334 3.107-5.852 6.508l-4.244 28.614-10.089 69.636-12.011 78.91-6.765 40.854c-2.076 10.919-7.67 15.078-18.661 15.673-1.746.095-3.393 2.024-5.086 3.105 1.626.949 3.243 2.709 4.878 2.725l64.997.19c2.335.002 4.975.401 4.799-3.277-.172-3.566-2.801-3.058-5.111-3.052-16.518.041-21.502-5.438-19.954-21.936.078-.829.124-1.663.235-2.488l9.997-74.668 5.103-41.591c.21-1.568 1.803-3.497 3.25-4.134.776-.341 2.956 1.468 3.872 2.755 1.124 1.579 1.482 3.68 2.354 5.465l66.308 135.196c1.32 2.664 5.108 5.771 7.659 5.694 2.596-.078 5.753-3.412 7.454-6.09 2.37-3.73 3.429-8.265 5.373-12.299l38.465-79.436 25.227-52.602c.79-1.635 2.217-2.961 3.348-4.431.853 1.62 2.241 3.167 2.476 4.872 2.452 17.79 3.955 35.745 7.2 53.382 6.202 33.714 23.143 60.528 53.192 78.336 17.924 10.623 37.079 17.813 58.34 21.903M329.012 72.546c3.035-2.841 5.841-5.986 9.141-8.476 24.783-18.702 53.108-20.696 82.342-16.319C447.59 51.808 463.132 69 470.645 94.539c.519 1.764 2.726 3.031 4.148 4.53 1.141-1.703 3.171-3.348 3.284-5.117l2.498-48.407c.233-5.282-1.892-7.631-7.133-8.398-4.444-.651-8.945-.982-13.346-1.838-29.246-5.687-58.588-8.375-88.352-4.419-30.129 4.005-55.717 17.017-77.729 37.654-5.052 4.736-6.856 10.235-5.887 17.088l5.96 45.512c2.853 20.211 8.252 39.712 17.276 58.098.744 1.516 2.22 2.673 3.356 3.997.495-2.757.249-4.888-.055-7.011-.093-.654-.33-1.289-.525-1.925-5.128-16.745-7.105-33.905-5.897-51.323 1.504-21.684 5.502-42.657 20.769-60.432z"/><path fill="#0b6ba7" d="M364.324 285.838c-20.831-4.047-39.985-11.237-57.909-21.86-30.049-17.809-46.99-44.622-53.192-78.336-3.245-17.637-4.748-35.593-7.2-53.382-.235-1.705-1.623-3.252-2.476-4.872-1.131 1.47-2.558 2.796-3.348 4.431l-25.227 52.602-38.465 79.436c-1.945 4.034-3.003 8.569-5.373 12.299-1.702 2.677-4.858 6.012-7.454 6.09-2.551.076-6.339-3.03-7.659-5.694L89.711 141.353c-.872-1.786-1.23-3.886-2.354-5.465-.916-1.287-3.096-3.096-3.872-2.755-1.447.636-3.04 2.565-3.25 4.134l-5.103 41.591-9.997 74.668c-.111.825-.157 1.659-.235 2.488-1.548 16.498 3.436 21.977 19.954 21.936 2.31-.006 4.939-.514 5.111 3.052.177 3.678-2.464 3.279-4.799 3.277-21.666-.019-43.333.017-64.997-.19-1.634-.016-3.252-1.776-4.878-2.725 1.693-1.081 3.339-3.01 5.086-3.105 10.991-.595 16.585-4.754 18.661-15.673 2.578-13.557 4.651-27.213 6.765-40.854l12.011-78.91 10.089-69.636 4.244-28.614c.518-3.401 2.154-6.088 5.852-6.508 4.007-.455 5.888 2.323 7.416 5.489l40.346 83.51 43.834 90.695c.756 1.554 2.495 3.331 4.005 3.573 1.03.165 2.944-1.938 3.637-3.414l21.111-45.668L256.943 49.36c1.217-2.549 2.274-5.295 4.038-7.426 1.422-1.718 4.34-4.086 5.633-3.601 2.177.816 4.377 3.405 5.147 5.72 1.185 3.567 1.198 7.53 1.66 11.331l9.814 80.235c4.864 35.34 16.236 68.3 39.121 96.282 18.434 22.539 42.616 35.305 71.563 38.124 10.683 1.04 21.588.452 32.348-.162 8.984-.513 13.839-6.452 13.843-15.762l-.319-60.494c-.488-18.867-2.351-20.679-22.736-23.357-1.15-.151-2.539.288-3.44-.218-1.09-.612-2.482-1.962-2.449-2.949.035-1.031 1.49-2.174 2.559-2.944.556-.4 1.616-.116 2.448-.116l81.999.006c.999 0 2.217-.303 2.946.154 1.11.695 2.551 1.899 2.6 2.946.045.959-1.481 2.1-2.493 2.948-.406.34-1.289.108-1.954.145-12.537.696-18.144 6.286-18.226 18.861l-.035 68.997c.025 11.962-2.589 15.778-13.822 19.236-21.878 6.735-44.272 10.898-67.147 11.173-11.75.141-23.523-1.676-35.717-2.651z"/><path fill="#a7ab15" d="M328.776 72.813c-15.031 17.509-19.029 38.482-20.533 60.166-1.208 17.417.77 34.578 5.897 51.323.195.636.432 1.272.525 1.925.303 2.123.549 4.254.055 7.011-1.136-1.324-2.612-2.481-3.356-3.997-9.024-18.386-14.423-37.886-17.276-58.098l-5.96-45.512c-.969-6.852.835-12.351 5.887-17.088 22.012-20.636 47.6-33.649 77.729-37.654 29.765-3.957 59.107-1.268 88.352 4.419 4.401.856 8.902 1.187 13.346 1.838 5.241.768 7.365 3.117 7.133 8.398l-2.498 48.407c-.113 1.768-2.143 3.414-3.284 5.116-1.422-1.498-3.629-2.766-4.148-4.53-7.512-25.538-23.054-42.73-50.149-46.787-29.234-4.377-57.559-2.383-82.342 16.319-3.3 2.49-6.106 5.634-9.377 8.743z"/></svg>